<svg id="visual" viewBox="0 0 900 450" width="900" height="450" xmlns="http://www.w3.org/2000/svg" xmlns:xlink="http://www.w3.org/1999/xlink" version="1.1"><rect x="0" y="0" width="900" height="450" fill="#282a36"></rect><defs><linearGradient id="grad1_0" x1="50%" y1="0%" x2="100%" y2="100%"><stop offset="10%" stop-color="#282a36" stop-opacity="1"></stop><stop offset="90%" stop-color="#282a36" stop-opacity="1"></stop></linearGradient></defs><defs><linearGradient id="grad2_0" x1="0%" y1="0%" x2="50%" y2="100%"><stop offset="10%" stop-color="#282a36" stop-opacity="1"></stop><stop offset="90%" stop-color="#282a36" stop-opacity="1"></stop></linearGradient></defs><g transform="translate(900, 0)"><path d="M0 247.5C-14.3 228.8 -28.7 210.1 -47.6 208.6C-66.6 207.2 -90.2 223 -104.6 217.1C-118.9 211.2 -124.1 183.6 -133.4 167.3C-142.8 151 -156.3 146.1 -174.3 139C-192.4 132 -215 122.7 -223 107.4C-231 92 -224.5 70.5 -226.2 51.6C-227.8 32.7 -237.7 16.4 -247.5 0L0 0Z" fill="#BD93F9"></path></g><g transform="translate(0, 450)"><path d="M0 -247.5C15.3 -232 30.6 -216.5 48.7 -213.5C66.9 -210.5 87.9 -220.1 104.1 -216.2C120.3 -212.3 131.6 -194.9 145.3 -182.2C158.9 -169.4 174.8 -161.3 186.9 -149C198.9 -136.7 207 -120.2 216.2 -104.1C225.5 -88 235.9 -72.4 241.3 -55.1C246.7 -37.8 247.1 -18.9 247.5 0L0 0Z" fill="#BD93F9"></path></g></svg>