<svg id="visual" viewBox="0 0 960 540" width="960" height="540" xmlns="http://www.w3.org/2000/svg" xmlns:xlink="http://www.w3.org/1999/xlink" version="1.1"><path d="M593 540L632 540L632 514L693 514L693 489L572 489L572 463L677 463L677 437L608 437L608 411L599 411L599 386L698 386L698 360L656 360L656 334L726 334L726 309L569 309L569 283L598 283L598 257L634 257L634 231L568 231L568 206L553 206L553 180L634 180L634 154L710 154L710 129L679 129L679 103L683 103L683 77L696 77L696 51L720 51L720 26L566 26L566 0L960 0L960 26L960 26L960 51L960 51L960 77L960 77L960 103L960 103L960 129L960 129L960 154L960 154L960 180L960 180L960 206L960 206L960 231L960 231L960 257L960 257L960 283L960 283L960 309L960 309L960 334L960 334L960 360L960 360L960 386L960 386L960 411L960 411L960 437L960 437L960 463L960 463L960 489L960 489L960 514L960 514L960 540L960 540Z" fill="#bd93f9"></path><path d="M641 540L726 540L726 514L656 514L656 489L745 489L745 463L639 463L639 437L645 437L645 411L617 411L617 386L727 386L727 360L627 360L627 334L698 334L698 309L726 309L726 283L614 283L614 257L624 257L624 231L641 231L641 206L703 206L703 180L732 180L732 154L752 154L752 129L662 129L662 103L606 103L606 77L682 77L682 51L679 51L679 26L743 26L743 0L960 0L960 26L960 26L960 51L960 51L960 77L960 77L960 103L960 103L960 129L960 129L960 154L960 154L960 180L960 180L960 206L960 206L960 231L960 231L960 257L960 257L960 283L960 283L960 309L960 309L960 334L960 334L960 360L960 360L960 386L960 386L960 411L960 411L960 437L960 437L960 463L960 463L960 489L960 489L960 514L960 514L960 540L960 540Z" fill="#a37adc"></path><path d="M692 540L697 540L697 514L713 514L713 489L741 489L741 463L731 463L731 437L781 437L781 411L684 411L684 386L734 386L734 360L669 360L669 334L713 334L713 309L724 309L724 283L682 283L682 257L768 257L768 231L694 231L694 206L728 206L728 180L764 180L764 154L759 154L759 129L808 129L808 103L668 103L668 77L783 77L783 51L691 51L691 26L723 26L723 0L960 0L960 26L960 26L960 51L960 51L960 77L960 77L960 103L960 103L960 129L960 129L960 154L960 154L960 180L960 180L960 206L960 206L960 231L960 231L960 257L960 257L960 283L960 283L960 309L960 309L960 334L960 334L960 360L960 360L960 386L960 386L960 411L960 411L960 437L960 437L960 463L960 463L960 489L960 489L960 514L960 514L960 540L960 540Z" fill="#8a63bf"></path><path d="M790 540L825 540L825 514L798 514L798 489L783 489L783 463L788 463L788 437L778 437L778 411L774 411L774 386L745 386L745 360L844 360L844 334L814 334L814 309L743 309L743 283L845 283L845 257L787 257L787 231L810 231L810 206L811 206L811 180L850 180L850 154L786 154L786 129L791 129L791 103L848 103L848 77L818 77L818 51L755 51L755 26L786 26L786 0L960 0L960 26L960 26L960 51L960 51L960 77L960 77L960 103L960 103L960 129L960 129L960 154L960 154L960 180L960 180L960 206L960 206L960 231L960 231L960 257L960 257L960 283L960 283L960 309L960 309L960 334L960 334L960 360L960 360L960 386L960 386L960 411L960 411L960 437L960 437L960 463L960 463L960 489L960 489L960 514L960 514L960 540L960 540Z" fill="#714ca3"></path><path d="M888 540L793 540L793 514L868 514L868 489L792 489L792 463L876 463L876 437L874 437L874 411L829 411L829 386L826 386L826 360L884 360L884 334L816 334L816 309L836 309L836 283L800 283L800 257L832 257L832 231L833 231L833 206L879 206L879 180L854 180L854 154L800 154L800 129L813 129L813 103L828 103L828 77L809 77L809 51L889 51L889 26L851 26L851 0L960 0L960 26L960 26L960 51L960 51L960 77L960 77L960 103L960 103L960 129L960 129L960 154L960 154L960 180L960 180L960 206L960 206L960 231L960 231L960 257L960 257L960 283L960 283L960 309L960 309L960 334L960 334L960 360L960 360L960 386L960 386L960 411L960 411L960 437L960 437L960 463L960 463L960 489L960 489L960 514L960 514L960 540L960 540Z" fill="#593588"></path><path d="M865 540L888 540L888 514L863 514L863 489L908 489L908 463L882 463L882 437L891 437L891 411L928 411L928 386L931 386L931 360L854 360L854 334L903 334L903 309L859 309L859 283L933 283L933 257L867 257L867 231L877 231L877 206L911 206L911 180L856 180L856 154L888 154L888 129L863 129L863 103L855 103L855 77L897 77L897 51L885 51L885 26L863 26L863 0L960 0L960 26L960 26L960 51L960 51L960 77L960 77L960 103L960 103L960 129L960 129L960 154L960 154L960 180L960 180L960 206L960 206L960 231L960 231L960 257L960 257L960 283L960 283L960 309L960 309L960 334L960 334L960 360L960 360L960 386L960 386L960 411L960 411L960 437L960 437L960 463L960 463L960 489L960 489L960 514L960 514L960 540L960 540Z" fill="#41206e"></path></svg>