<svg id="visual" viewBox="0 0 675 900" width="675" height="900" xmlns="http://www.w3.org/2000/svg" xmlns:xlink="http://www.w3.org/1999/xlink" version="1.1"><path d="M0 271L40 271L40 202L79 202L79 53L119 53L119 318L159 318L159 153L199 153L199 55L238 55L238 258L278 258L278 198L318 198L318 266L357 266L357 75L397 75L397 315L437 315L437 224L476 224L476 266L516 266L516 356L556 356L556 223L596 223L596 279L635 279L635 106L675 106L675 113L675 0L675 0L635 0L635 0L596 0L596 0L556 0L556 0L516 0L516 0L476 0L476 0L437 0L437 0L397 0L397 0L357 0L357 0L318 0L318 0L278 0L278 0L238 0L238 0L199 0L199 0L159 0L159 0L119 0L119 0L79 0L79 0L40 0L40 0L0 0Z" fill="#8041d9"></path><path d="M0 95L40 95L40 290L79 290L79 186L119 186L119 275L159 275L159 300L199 300L199 245L238 245L238 146L278 146L278 115L318 115L318 178L357 178L357 212L397 212L397 290L437 290L437 195L476 195L476 212L516 212L516 81L556 81L556 154L596 154L596 154L635 154L635 155L675 155L675 287L675 0L675 0L635 0L635 0L596 0L596 0L556 0L556 0L516 0L516 0L476 0L476 0L437 0L437 0L397 0L397 0L357 0L357 0L318 0L318 0L278 0L278 0L238 0L238 0L199 0L199 0L159 0L159 0L119 0L119 0L79 0L79 0L40 0L40 0L0 0Z" fill="#733ac3"></path><path d="M0 40L40 40L40 53L79 53L79 227L119 227L119 240L159 240L159 178L199 178L199 78L238 78L238 63L278 63L278 94L318 94L318 189L357 189L357 65L397 65L397 230L437 230L437 246L476 246L476 233L516 233L516 160L556 160L556 183L596 183L596 155L635 155L635 80L675 80L675 136L675 0L675 0L635 0L635 0L596 0L596 0L556 0L556 0L516 0L516 0L476 0L476 0L437 0L437 0L397 0L397 0L357 0L357 0L318 0L318 0L278 0L278 0L238 0L238 0L199 0L199 0L159 0L159 0L119 0L119 0L79 0L79 0L40 0L40 0L0 0Z" fill="#6633ad"></path><path d="M0 110L40 110L40 75L79 75L79 87L119 87L119 37L159 37L159 171L199 171L199 106L238 106L238 29L278 29L278 45L318 45L318 75L357 75L357 191L397 191L397 90L437 90L437 59L476 59L476 140L516 140L516 66L556 66L556 196L596 196L596 39L635 39L635 32L675 32L675 85L675 0L675 0L635 0L635 0L596 0L596 0L556 0L556 0L516 0L516 0L476 0L476 0L437 0L437 0L397 0L397 0L357 0L357 0L318 0L318 0L278 0L278 0L238 0L238 0L199 0L199 0L159 0L159 0L119 0L119 0L79 0L79 0L40 0L40 0L0 0Z" fill="#5a2d97"></path><path d="M0 37L40 37L40 25L79 25L79 133L119 133L119 70L159 70L159 51L199 51L199 130L238 130L238 76L278 76L278 119L318 119L318 52L357 52L357 78L397 78L397 139L437 139L437 75L476 75L476 89L516 89L516 135L556 135L556 77L596 77L596 131L635 131L635 64L675 64L675 124L675 0L675 0L635 0L635 0L596 0L596 0L556 0L556 0L516 0L516 0L476 0L476 0L437 0L437 0L397 0L397 0L357 0L357 0L318 0L318 0L278 0L278 0L238 0L238 0L199 0L199 0L159 0L159 0L119 0L119 0L79 0L79 0L40 0L40 0L0 0Z" fill="#4d2682"></path><path d="M0 0L40 0L40 66L79 66L79 81L119 81L119 46L159 46L159 87L199 87L199 77L238 77L238 100L278 100L278 52L318 52L318 79L357 79L357 71L397 71L397 56L437 56L437 87L476 87L476 27L516 27L516 74L556 74L556 49L596 49L596 41L635 41L635 67L675 67L675 11L675 0L675 0L635 0L635 0L596 0L596 0L556 0L556 0L516 0L516 0L476 0L476 0L437 0L437 0L397 0L397 0L357 0L357 0L318 0L318 0L278 0L278 0L238 0L238 0L199 0L199 0L159 0L159 0L119 0L119 0L79 0L79 0L40 0L40 0L0 0Z" fill="#41206e"></path></svg>