<svg id="visual" viewBox="0 0 675 900" width="675" height="900" xmlns="http://www.w3.org/2000/svg" xmlns:xlink="http://www.w3.org/1999/xlink" version="1.1"><path d="M0 191L42 191L42 151L84 151L84 147L127 147L127 194L169 194L169 136L211 136L211 122L253 122L253 134L295 134L295 154L338 154L338 167L380 167L380 147L422 147L422 169L464 169L464 161L506 161L506 134L548 134L548 136L591 136L591 132L633 132L633 195L675 195L675 151L675 0L675 0L633 0L633 0L591 0L591 0L548 0L548 0L506 0L506 0L464 0L464 0L422 0L422 0L380 0L380 0L338 0L338 0L295 0L295 0L253 0L253 0L211 0L211 0L169 0L169 0L127 0L127 0L84 0L84 0L42 0L42 0L0 0Z" fill="#a467f9"></path><path d="M0 119L42 119L42 109L84 109L84 127L127 127L127 123L169 123L169 105L211 105L211 158L253 158L253 175L295 175L295 172L338 172L338 119L380 119L380 129L422 129L422 141L464 141L464 124L506 124L506 135L548 135L548 101L591 101L591 106L633 106L633 149L675 149L675 128L675 0L675 0L633 0L633 0L591 0L591 0L548 0L548 0L506 0L506 0L464 0L464 0L422 0L422 0L380 0L380 0L338 0L338 0L295 0L295 0L253 0L253 0L211 0L211 0L169 0L169 0L127 0L127 0L84 0L84 0L42 0L42 0L0 0Z" fill="#9455e3"></path><path d="M0 96L42 96L42 139L84 139L84 105L127 105L127 105L169 105L169 116L211 116L211 84L253 84L253 117L295 117L295 98L338 98L338 130L380 130L380 87L422 87L422 133L464 133L464 120L506 120L506 92L548 92L548 88L591 88L591 122L633 122L633 128L675 128L675 128L675 0L675 0L633 0L633 0L591 0L591 0L548 0L548 0L506 0L506 0L464 0L464 0L422 0L422 0L380 0L380 0L338 0L338 0L295 0L295 0L253 0L253 0L211 0L211 0L169 0L169 0L127 0L127 0L84 0L84 0L42 0L42 0L0 0Z" fill="#8543ce"></path><path d="M0 111L42 111L42 100L84 100L84 73L127 73L127 94L169 94L169 74L211 74L211 78L253 78L253 86L295 86L295 83L338 83L338 80L380 80L380 66L422 66L422 84L464 84L464 66L506 66L506 90L548 90L548 113L591 113L591 109L633 109L633 76L675 76L675 102L675 0L675 0L633 0L633 0L591 0L591 0L548 0L548 0L506 0L506 0L464 0L464 0L422 0L422 0L380 0L380 0L338 0L338 0L295 0L295 0L253 0L253 0L211 0L211 0L169 0L169 0L127 0L127 0L84 0L84 0L42 0L42 0L0 0Z" fill="#7531b9"></path><path d="M0 57L42 57L42 52L84 52L84 64L127 64L127 47L169 47L169 62L211 62L211 70L253 70L253 80L295 80L295 72L338 72L338 46L380 46L380 69L422 69L422 61L464 61L464 78L506 78L506 73L548 73L548 67L591 67L591 80L633 80L633 49L675 49L675 48L675 0L675 0L633 0L633 0L591 0L591 0L548 0L548 0L506 0L506 0L464 0L464 0L422 0L422 0L380 0L380 0L338 0L338 0L295 0L295 0L253 0L253 0L211 0L211 0L169 0L169 0L127 0L127 0L84 0L84 0L42 0L42 0L0 0Z" fill="#661ca4"></path><path d="M0 50L42 50L42 52L84 52L84 45L127 45L127 50L169 50L169 44L211 44L211 47L253 47L253 38L295 38L295 49L338 49L338 36L380 36L380 37L422 37L422 37L464 37L464 44L506 44L506 23L548 23L548 43L591 43L591 37L633 37L633 52L675 52L675 31L675 0L675 0L633 0L633 0L591 0L591 0L548 0L548 0L506 0L506 0L464 0L464 0L422 0L422 0L380 0L380 0L338 0L338 0L295 0L295 0L253 0L253 0L211 0L211 0L169 0L169 0L127 0L127 0L84 0L84 0L42 0L42 0L0 0Z" fill="#560090"></path></svg>