<svg id="visual" viewBox="0 0 900 900" width="900" height="900" xmlns="http://www.w3.org/2000/svg" xmlns:xlink="http://www.w3.org/1999/xlink" version="1.1"><path d="M596 900L551 900L551 850L608 850L608 800L550 800L550 750L554 750L554 700L612 700L612 650L601 650L601 600L540 600L540 550L555 550L555 500L598 500L598 450L531 450L531 400L537 400L537 350L563 350L563 300L587 300L587 250L525 250L525 200L598 200L598 150L581 150L581 100L602 100L602 50L529 50L529 0L900 0L900 50L900 50L900 100L900 100L900 150L900 150L900 200L900 200L900 250L900 250L900 300L900 300L900 350L900 350L900 400L900 400L900 450L900 450L900 500L900 500L900 550L900 550L900 600L900 600L900 650L900 650L900 700L900 700L900 750L900 750L900 800L900 800L900 850L900 850L900 900L900 900Z" fill="#9900ff"></path><path d="M613 900L627 900L627 850L669 850L669 800L670 800L670 750L688 750L688 700L663 700L663 650L643 650L643 600L633 600L633 550L630 550L630 500L619 500L619 450L679 450L679 400L692 400L692 350L655 350L655 300L616 300L616 250L679 250L679 200L630 200L630 150L682 150L682 100L690 100L690 50L685 50L685 0L900 0L900 50L900 50L900 100L900 100L900 150L900 150L900 200L900 200L900 250L900 250L900 300L900 300L900 350L900 350L900 400L900 400L900 450L900 450L900 500L900 500L900 550L900 550L900 600L900 600L900 650L900 650L900 700L900 700L900 750L900 750L900 800L900 800L900 850L900 850L900 900L900 900Z" fill="#8200d9"></path><path d="M700 900L723 900L723 850L746 850L746 800L763 800L763 750L765 750L765 700L723 700L723 650L729 650L729 600L753 600L753 550L706 550L706 500L736 500L736 450L739 450L739 400L756 400L756 350L737 350L737 300L706 300L706 250L742 250L742 200L759 200L759 150L695 150L695 100L751 100L751 50L759 50L759 0L900 0L900 50L900 50L900 100L900 100L900 150L900 150L900 200L900 200L900 250L900 250L900 300L900 300L900 350L900 350L900 400L900 400L900 450L900 450L900 500L900 500L900 550L900 550L900 600L900 600L900 650L900 650L900 700L900 700L900 750L900 750L900 800L900 800L900 850L900 850L900 900L900 900Z" fill="#6c00b4"></path><path d="M806 900L816 900L816 850L821 850L821 800L839 800L839 750L783 750L783 700L834 700L834 650L831 650L831 600L800 600L800 550L797 550L797 500L775 500L775 450L807 450L807 400L820 400L820 350L836 350L836 300L775 300L775 250L814 250L814 200L807 200L807 150L841 150L841 100L803 100L803 50L825 50L825 0L900 0L900 50L900 50L900 100L900 100L900 150L900 150L900 200L900 200L900 250L900 250L900 300L900 300L900 350L900 350L900 400L900 400L900 450L900 450L900 500L900 500L900 550L900 550L900 600L900 600L900 650L900 650L900 700L900 700L900 750L900 750L900 800L900 800L900 850L900 850L900 900L900 900Z" fill="#560090"></path></svg>